REM DIRINDEX 1\2,1\3
REM DIRNAME cjc039,folder01,folder02
TITLE ""
FILE "2341-2360.mp3" MP3
  TRACK 01 AUDIO
    TITLE "0:"
    INDEX 01 00:00:00
  TRACK 02 AUDIO
    TITLE "2:cjc039_3681"
    INDEX 01 00:00:25
  TRACK 03 AUDIO
    TITLE "0:"
    INDEX 01 00:01:38
  TRACK 04 AUDIO
    TITLE "3:cjc039_3682"
    INDEX 01 00:02:10
  TRACK 05 AUDIO
    TITLE "0:"
    INDEX 01 00:05:38
  TRACK 06 AUDIO
    TITLE "2:cjc039_3683"
    INDEX 01 00:07:15
  TRACK 07 AUDIO
    TITLE "0:"
    INDEX 01 00:08:26
  TRACK 08 AUDIO
    TITLE "3:cjc039_3684"
    INDEX 01 00:08:72
  TRACK 09 AUDIO
    TITLE "0:"
    INDEX 01 00:11:68
  TRACK 10 AUDIO
    TITLE "2:cjc039_3685"
    INDEX 01 00:13:43
  TRACK 11 AUDIO
    TITLE "0:"
    INDEX 01 00:14:56
  TRACK 12 AUDIO
    TITLE "3:cjc039_3686"
    INDEX 01 00:15:32
  TRACK 13 AUDIO
    TITLE "0:"
    INDEX 01 00:18:50
  TRACK 14 AUDIO
    TITLE "2:cjc039_3687"
    INDEX 01 00:20:28
  TRACK 15 AUDIO
    TITLE "0:"
    INDEX 01 00:21:41
  TRACK 16 AUDIO
    TITLE "3:cjc039_3688"
    INDEX 01 00:22:13
  TRACK 17 AUDIO
    TITLE "0:"
    INDEX 01 00:24:71
  TRACK 18 AUDIO
    TITLE "2:cjc039_3689"
    INDEX 01 00:26:48
  TRACK 19 AUDIO
    TITLE "0:"
    INDEX 01 00:27:53
  TRACK 20 AUDIO
    TITLE "3:cjc039_3690"
    INDEX 01 00:28:31
  TRACK 21 AUDIO
    TITLE "0:"
    INDEX 01 00:31:26
  TRACK 22 AUDIO
    TITLE "2:cjc039_3691"
    INDEX 01 00:33:01
  TRACK 23 AUDIO
    TITLE "0:"
    INDEX 01 00:34:30
  TRACK 24 AUDIO
    TITLE "3:cjc039_3692"
    INDEX 01 00:35:02
  TRACK 25 AUDIO
    TITLE "0:"
    INDEX 01 00:39:02
  TRACK 26 AUDIO
    TITLE "2:cjc039_3693"
    INDEX 01 00:40:52
  TRACK 27 AUDIO
    TITLE "0:"
    INDEX 01 00:41:53
  TRACK 28 AUDIO
    TITLE "3:cjc039_3694"
    INDEX 01 00:42:29
  TRACK 29 AUDIO
    TITLE "0:"
    INDEX 01 00:46:02
  TRACK 30 AUDIO
    TITLE "2:cjc039_3695"
    INDEX 01 00:47:48
  TRACK 31 AUDIO
    TITLE "0:"
    INDEX 01 00:49:02
  TRACK 32 AUDIO
    TITLE "3:cjc039_3696"
    INDEX 01 00:49:53
  TRACK 33 AUDIO
    TITLE "0:"
    INDEX 01 00:53:53
  TRACK 34 AUDIO
    TITLE "2:cjc039_3697"
    INDEX 01 00:55:28
  TRACK 35 AUDIO
    TITLE "0:"
    INDEX 01 00:56:29
  TRACK 36 AUDIO
    TITLE "3:cjc039_3698"
    INDEX 01 00:57:05
  TRACK 37 AUDIO
    TITLE "0:"
    INDEX 01 00:59:57
  TRACK 38 AUDIO
    TITLE "2:cjc039_3699"
    INDEX 01 01:01:31
  TRACK 39 AUDIO
    TITLE "0:"
    INDEX 01 01:02:59
  TRACK 40 AUDIO
    TITLE "3:cjc039_3700"
    INDEX 01 01:03:33
  TRACK 41 AUDIO
    TITLE "0:"
    INDEX 01 01:06:53
  TRACK 42 AUDIO
    TITLE "2:cjc039_3701"
    INDEX 01 01:08:27
  TRACK 43 AUDIO
    TITLE "0:"
    INDEX 01 01:09:30
  TRACK 44 AUDIO
    TITLE "3:cjc039_3702"
    INDEX 01 01:10:02
  TRACK 45 AUDIO
    TITLE "0:"
    INDEX 01 01:12:56
  TRACK 46 AUDIO
    TITLE "2:cjc039_3703"
    INDEX 01 01:14:31
  TRACK 47 AUDIO
    TITLE "0:"
    INDEX 01 01:15:54
  TRACK 48 AUDIO
    TITLE "3:cjc039_3704"
    INDEX 01 01:16:32
  TRACK 49 AUDIO
    TITLE "0:"
    INDEX 01 01:19:62
  TRACK 50 AUDIO
    TITLE "2:cjc039_3705"
    INDEX 01 01:21:41
  TRACK 51 AUDIO
    TITLE "0:"
    INDEX 01 01:22:39
  TRACK 52 AUDIO
    TITLE "3:cjc039_3706"
    INDEX 01 01:23:15
  TRACK 53 AUDIO
    TITLE "0:"
    INDEX 01 01:26:38
  TRACK 54 AUDIO
    TITLE "2:cjc039_3707"
    INDEX 01 01:28:14
  TRACK 55 AUDIO
    TITLE "0:"
    INDEX 01 01:29:46
  TRACK 56 AUDIO
    TITLE "3:cjc039_3708"
    INDEX 01 01:30:24
  TRACK 57 AUDIO
    TITLE "0:"
    INDEX 01 01:33:62
  TRACK 58 AUDIO
    TITLE "2:cjc039_3709"
    INDEX 01 01:35:37
  TRACK 59 AUDIO
    TITLE "0:"
    INDEX 01 01:36:66
  TRACK 60 AUDIO
    TITLE "3:cjc039_3710"
    INDEX 01 01:37:44
  TRACK 61 AUDIO
    TITLE "0:"
    INDEX 01 01:41:10
  TRACK 62 AUDIO
    TITLE "2:cjc039_3711"
    INDEX 01 01:42:59
  TRACK 63 AUDIO
    TITLE "0:"
    INDEX 01 01:44:03
  TRACK 64 AUDIO
    TITLE "3:cjc039_3712"
    INDEX 01 01:44:54
  TRACK 65 AUDIO
    TITLE "0:"
    INDEX 01 01:48:05
  TRACK 66 AUDIO
    TITLE "2:cjc039_3713"
    INDEX 01 01:49:57
  TRACK 67 AUDIO
    TITLE "0:"
    INDEX 01 01:51:05
  TRACK 68 AUDIO
    TITLE "3:cjc039_3714"
    INDEX 01 01:51:58
  TRACK 69 AUDIO
    TITLE "0:"
    INDEX 01 01:55:48
  TRACK 70 AUDIO
    TITLE "2:cjc039_3715"
    INDEX 01 01:57:19
  TRACK 71 AUDIO
    TITLE "0:"
    INDEX 01 01:58:42
  TRACK 72 AUDIO
    TITLE "3:cjc039_3716"
    INDEX 01 01:59:16
  TRACK 73 AUDIO
    TITLE "0:"
    INDEX 01 02:03:14
  TRACK 74 AUDIO
    TITLE "2:cjc039_3717"
    INDEX 01 02:04:64
  TRACK 75 AUDIO
    TITLE "0:"
    INDEX 01 02:06:20
  TRACK 76 AUDIO
    TITLE "3:cjc039_3718"
    INDEX 01 02:06:71
  TRACK 77 AUDIO
    TITLE "0:"
    INDEX 01 02:10:30
  TRACK 78 AUDIO
    TITLE "2:cjc039_3719"
    INDEX 01 02:12:07
  TRACK 79 AUDIO
    TITLE "0:"
    INDEX 01 02:13:44
  TRACK 80 AUDIO
    TITLE "3:cjc039_3720"
    INDEX 01 02:14:22
  TRACK 81 AUDIO
    TITLE "0:"
    INDEX 01 02:17:44
